<?xml version="1.0" standalone="no"?><svg xmlns="http://www.w3.org/2000/svg" viewBox="0 0 1440 320"><path fill="#ffffff" fill-opacity="1" d="M0,64L30,64C60,64,120,64,180,90.7C240,117,300,171,360,192C420,213,480,203,540,176C600,149,660,107,720,101.3C780,96,840,128,900,154.7C960,181,1020,203,1080,202.7C1140,203,1200,181,1260,149.3C1320,117,1380,75,1410,53.3L1440,32L1440,0L1410,0C1380,0,1320,0,1260,0C1200,0,1140,0,1080,0C1020,0,960,0,900,0C840,0,780,0,720,0C660,0,600,0,540,0C480,0,420,0,360,0C300,0,240,0,180,0C120,0,60,0,30,0L0,0Z"></path></svg>