<?xml version="1.0" standalone="no"?><svg xmlns="http://www.w3.org/2000/svg" viewBox="0 0 1440 320"><path fill="#ffffff" fill-opacity="1" d="M0,128L34.3,106.7C68.6,85,137,43,206,37.3C274.3,32,343,64,411,69.3C480,75,549,53,617,42.7C685.7,32,754,32,823,48C891.4,64,960,96,1029,96C1097.1,96,1166,64,1234,53.3C1302.9,43,1371,53,1406,58.7L1440,64L1440,0L1405.7,0C1371.4,0,1303,0,1234,0C1165.7,0,1097,0,1029,0C960,0,891,0,823,0C754.3,0,686,0,617,0C548.6,0,480,0,411,0C342.9,0,274,0,206,0C137.1,0,69,0,34,0L0,0Z"></path></svg>