<?xml version="1.0" standalone="no"?>
<svg xmlns:xlink="http://www.w3.org/1999/xlink" id="wave" style="transform:rotate(180deg); transition: 0.3s" viewBox="0 0 1440 100" version="1.1" xmlns="http://www.w3.org/2000/svg"><defs><linearGradient id="sw-gradient-0" x1="0" x2="0" y1="1" y2="0"><stop stop-color="rgba(255, 255, 255, 1)" offset="0%"/><stop stop-color="rgba(255, 255, 255, 1)" offset="100%"/></linearGradient></defs><path style="transform:translate(0, 0px); opacity:1" fill="url(#sw-gradient-0)" d="M0,80L24,66.7C48,53,96,27,144,28.3C192,30,240,60,288,66.7C336,73,384,57,432,41.7C480,27,528,13,576,20C624,27,672,53,720,53.3C768,53,816,27,864,21.7C912,17,960,33,1008,45C1056,57,1104,63,1152,60C1200,57,1248,43,1296,36.7C1344,30,1392,30,1440,28.3C1488,27,1536,23,1584,20C1632,17,1680,13,1728,20C1776,27,1824,43,1872,55C1920,67,1968,73,2016,63.3C2064,53,2112,27,2160,16.7C2208,7,2256,13,2304,25C2352,37,2400,53,2448,56.7C2496,60,2544,50,2592,51.7C2640,53,2688,67,2736,63.3C2784,60,2832,40,2880,40C2928,40,2976,60,3024,66.7C3072,73,3120,67,3168,60C3216,53,3264,47,3312,40C3360,33,3408,27,3432,23.3L3456,20L3456,100L3432,100C3408,100,3360,100,3312,100C3264,100,3216,100,3168,100C3120,100,3072,100,3024,100C2976,100,2928,100,2880,100C2832,100,2784,100,2736,100C2688,100,2640,100,2592,100C2544,100,2496,100,2448,100C2400,100,2352,100,2304,100C2256,100,2208,100,2160,100C2112,100,2064,100,2016,100C1968,100,1920,100,1872,100C1824,100,1776,100,1728,100C1680,100,1632,100,1584,100C1536,100,1488,100,1440,100C1392,100,1344,100,1296,100C1248,100,1200,100,1152,100C1104,100,1056,100,1008,100C960,100,912,100,864,100C816,100,768,100,720,100C672,100,624,100,576,100C528,100,480,100,432,100C384,100,336,100,288,100C240,100,192,100,144,100C96,100,48,100,24,100L0,100Z"/></svg>