<?xml version="1.0" standalone="no"?>
<svg xmlns:xlink="http://www.w3.org/1999/xlink" id="wave" style="transform:rotate(180deg); transition: 0.3s" viewBox="0 0 1440 100" version="1.1" xmlns="http://www.w3.org/2000/svg"><defs><linearGradient id="sw-gradient-0" x1="0" x2="0" y1="1" y2="0"><stop stop-color="rgba(255, 255, 255, 1)" offset="0%"/><stop stop-color="rgba(255, 255, 255, 1)" offset="100%"/></linearGradient></defs><path style="transform:translate(0, 0px); opacity:1" fill="url(#sw-gradient-0)" d="M0,50L40,46.7C80,43,160,37,240,43.3C320,50,400,70,480,65C560,60,640,30,720,30C800,30,880,60,960,73.3C1040,87,1120,83,1200,71.7C1280,60,1360,40,1440,40C1520,40,1600,60,1680,70C1760,80,1840,80,1920,76.7C2000,73,2080,67,2160,58.3C2240,50,2320,40,2400,41.7C2480,43,2560,57,2640,63.3C2720,70,2800,70,2880,70C2960,70,3040,70,3120,73.3C3200,77,3280,83,3360,75C3440,67,3520,43,3600,38.3C3680,33,3760,47,3840,58.3C3920,70,4000,80,4080,78.3C4160,77,4240,63,4320,60C4400,57,4480,63,4560,56.7C4640,50,4720,30,4800,31.7C4880,33,4960,57,5040,65C5120,73,5200,67,5280,63.3C5360,60,5440,60,5520,50C5600,40,5680,20,5720,10L5760,0L5760,100L5720,100C5680,100,5600,100,5520,100C5440,100,5360,100,5280,100C5200,100,5120,100,5040,100C4960,100,4880,100,4800,100C4720,100,4640,100,4560,100C4480,100,4400,100,4320,100C4240,100,4160,100,4080,100C4000,100,3920,100,3840,100C3760,100,3680,100,3600,100C3520,100,3440,100,3360,100C3280,100,3200,100,3120,100C3040,100,2960,100,2880,100C2800,100,2720,100,2640,100C2560,100,2480,100,2400,100C2320,100,2240,100,2160,100C2080,100,2000,100,1920,100C1840,100,1760,100,1680,100C1600,100,1520,100,1440,100C1360,100,1280,100,1200,100C1120,100,1040,100,960,100C880,100,800,100,720,100C640,100,560,100,480,100C400,100,320,100,240,100C160,100,80,100,40,100L0,100Z"/></svg>